<?xml version="1.0" encoding="UTF-8" standalone="no"?>
<!-- Generator: Adobe Illustrator 16.0.0, SVG Export Plug-In . SVG Version: 6.00 Build 0)  -->

<svg
   xmlns:dc="http://purl.org/dc/elements/1.1/"
   xmlns:cc="http://creativecommons.org/ns#"
   xmlns:rdf="http://www.w3.org/1999/02/22-rdf-syntax-ns#"
   xmlns:svg="http://www.w3.org/2000/svg"
   xmlns="http://www.w3.org/2000/svg"
   xmlns:sodipodi="http://sodipodi.sourceforge.net/DTD/sodipodi-0.dtd"
   xmlns:inkscape="http://www.inkscape.org/namespaces/inkscape"
   version="1.1"
   id="Capa_1"
   x="0px"
   y="0px"
   width="66"
   height="66"
   viewBox="0 0 66 66"
   xml:space="preserve"
   sodipodi:docname="Menu-thin-circular-outlined-button.svg"
   inkscape:version="0.92.3 (2405546, 2018-03-11)"><metadata
   id="metadata100"><rdf:RDF><cc:Work
       rdf:about=""><dc:format>image/svg+xml</dc:format><dc:type
         rdf:resource="http://purl.org/dc/dcmitype/StillImage" /><dc:title></dc:title></cc:Work></rdf:RDF></metadata><defs
   id="defs98" /><sodipodi:namedview
   pagecolor="#ffffff"
   bordercolor="#666666"
   borderopacity="1"
   objecttolerance="10"
   gridtolerance="10"
   guidetolerance="10"
   inkscape:pageopacity="0"
   inkscape:pageshadow="2"
   inkscape:window-width="1600"
   inkscape:window-height="847"
   id="namedview96"
   showgrid="false"
   inkscape:zoom="7.4909125"
   inkscape:cx="11.746301"
   inkscape:cy="29.106614"
   inkscape:window-x="-8"
   inkscape:window-y="499"
   inkscape:window-maximized="1"
   inkscape:current-layer="Capa_1" />
<g
   id="g63"
   transform="translate(0.92104864,0.93874774)">
	<g
   id="g61">
		<g
   id="Menu_4_">
			<g
   id="g58">
				<path
   d="M 32,0 C 14.327,0 0,14.327 0,32 0,49.673 14.327,64 32,64 49.673,64 64,49.673 64,32 64,14.327 49.673,0 32,0 Z m 0,62 C 15.432,62 1.999,48.568 1.999,32 1.999,15.432 15.432,2 32,2 48.568,2 62,15.432 62,32 62,48.568 48.568,62 32,62 Z M 20,33 H 44 V 31 H 20 Z m 0,-8 H 44 V 23 H 20 Z m 0,16 H 44 V 39 H 20 Z"
   id="path56"
   inkscape:connector-curvature="0" />
			</g>
		</g>
	</g>
</g>
<g
   id="g65"
   transform="translate(0,2)">
</g>
<g
   id="g67"
   transform="translate(0,2)">
</g>
<g
   id="g69"
   transform="translate(0,2)">
</g>
<g
   id="g71"
   transform="translate(0,2)">
</g>
<g
   id="g73"
   transform="translate(0,2)">
</g>
<g
   id="g75"
   transform="translate(0,2)">
</g>
<g
   id="g77"
   transform="translate(0,2)">
</g>
<g
   id="g79"
   transform="translate(0,2)">
</g>
<g
   id="g81"
   transform="translate(0,2)">
</g>
<g
   id="g83"
   transform="translate(0,2)">
</g>
<g
   id="g85"
   transform="translate(0,2)">
</g>
<g
   id="g87"
   transform="translate(0,2)">
</g>
<g
   id="g89"
   transform="translate(0,2)">
</g>
<g
   id="g91"
   transform="translate(0,2)">
</g>
<g
   id="g93"
   transform="translate(0,2)">
</g>
</svg>